<svg xmlns="http://www.w3.org/2000/svg" viewBox="0 0 1600 1000" role="img" aria-label="Project One — Projects list">

  <rect width="1600" height="1000" fill="#fafafa"/>
  <rect x="80" y="60" width="1440" height="880" rx="14" fill="#ffffff" stroke="#e5e5e5" stroke-width="2"/>
  <rect x="80" y="60" width="1440" height="48" fill="#f5f5f5"/>
  <rect x="80" y="92" width="1440" height="16" fill="#f5f5f5"/>
  <line x1="80" y1="108" x2="1520" y2="108" stroke="#e5e5e5" stroke-width="2"/>
  <circle cx="110" cy="84" r="7" fill="#d4d4d4"/>
  <circle cx="132" cy="84" r="7" fill="#d4d4d4"/>
  <circle cx="154" cy="84" r="7" fill="#d4d4d4"/>
  <rect x="200" y="72" width="640" height="24" rx="12" fill="#fafafa" stroke="#e5e5e5"/>
  <text x="220" y="89" font-size="13" fill="#a3a3a3" font-family="ui-monospace, SFMono-Regular, Menlo, monospace">project-one.example.com / projects</text>
<rect x="80" y="108" width="240" height="832" fill="#f5f5f5"/><line x1="320" y1="108" x2="320" y2="940" stroke="#e5e5e5" stroke-width="2"/><rect x="108" y="140" width="32" height="32" rx="6" fill="#171717"/><rect x="150" y="148" width="80" height="14" rx="3" fill="#171717"/><rect x="116" y="220" width="14" height="14" rx="3" fill="#737373"/><rect x="140" y="223" width="110" height="9" rx="3" fill="#737373"/><rect x="100" y="254" width="200" height="32" rx="6" fill="#ffffff" stroke="#e5e5e5"/><rect x="116" y="264" width="14" height="14" rx="3" fill="#171717"/><rect x="140" y="267" width="90" height="9" rx="3" fill="#171717"/><rect x="116" y="308" width="14" height="14" rx="3" fill="#737373"/><rect x="140" y="311" width="120" height="9" rx="3" fill="#737373"/><rect x="116" y="352" width="14" height="14" rx="3" fill="#737373"/><rect x="140" y="355" width="80" height="9" rx="3" fill="#737373"/><rect x="116" y="396" width="14" height="14" rx="3" fill="#737373"/><rect x="140" y="399" width="100" height="9" rx="3" fill="#737373"/><rect x="360" y="148" width="220" height="22" rx="4" fill="#171717"/><rect x="360" y="180" width="380" height="11" rx="3" fill="#a3a3a3"/><rect x="360" y="224" width="420" height="40" rx="6" fill="#ffffff" stroke="#e5e5e5"/><rect x="384" y="240" width="180" height="9" rx="3" fill="#a3a3a3"/><rect x="1380" y="224" width="100" height="40" rx="6" fill="#171717"/><rect x="1402" y="241" width="56" height="8" rx="3" fill="#ffffff"/><rect x="360" y="296" width="1100" height="44" rx="6" fill="#f5f5f5" stroke="#e5e5e5"/><rect x="384" y="316" width="60" height="9" rx="3" fill="#737373"/><rect x="640" y="316" width="80" height="9" rx="3" fill="#737373"/><rect x="900" y="316" width="70" height="9" rx="3" fill="#737373"/><rect x="1140" y="316" width="60" height="9" rx="3" fill="#737373"/><rect x="1340" y="316" width="50" height="9" rx="3" fill="#737373"/><rect x="360" y="354" width="1100" height="64" fill="#ffffff"/><line x1="360" y1="418" x2="1460" y2="418" stroke="#e5e5e5" stroke-width="1"/><circle cx="400" cy="386" r="14" fill="#f5f5f5" stroke="#e5e5e5"/><rect x="430" y="376" width="180" height="11" rx="3" fill="#171717"/><rect x="430" y="394" width="120" height="9" rx="3" fill="#a3a3a3"/><rect x="640" y="382" width="200" height="9" rx="3" fill="#737373"/><rect x="900" y="382" width="160" height="9" rx="3" fill="#737373"/><rect x="1140" y="376" width="84" height="22" rx="11" fill="#f5f5f5" stroke="#e5e5e5"/><rect x="1156" y="384" width="52" height="6" rx="3" fill="#737373"/><rect x="1340" y="382" width="80" height="9" rx="3" fill="#737373"/><rect x="360" y="418" width="1100" height="64" fill="#ffffff"/><line x1="360" y1="482" x2="1460" y2="482" stroke="#e5e5e5" stroke-width="1"/><circle cx="400" cy="450" r="14" fill="#f5f5f5" stroke="#e5e5e5"/><rect x="430" y="440" width="180" height="11" rx="3" fill="#171717"/><rect x="430" y="458" width="120" height="9" rx="3" fill="#a3a3a3"/><rect x="640" y="446" width="200" height="9" rx="3" fill="#737373"/><rect x="900" y="446" width="160" height="9" rx="3" fill="#737373"/><rect x="1140" y="440" width="84" height="22" rx="11" fill="#f5f5f5" stroke="#e5e5e5"/><rect x="1156" y="448" width="52" height="6" rx="3" fill="#737373"/><rect x="1340" y="446" width="80" height="9" rx="3" fill="#737373"/><rect x="360" y="482" width="1100" height="64" fill="#ffffff"/><line x1="360" y1="546" x2="1460" y2="546" stroke="#e5e5e5" stroke-width="1"/><circle cx="400" cy="514" r="14" fill="#f5f5f5" stroke="#e5e5e5"/><rect x="430" y="504" width="180" height="11" rx="3" fill="#171717"/><rect x="430" y="522" width="120" height="9" rx="3" fill="#a3a3a3"/><rect x="640" y="510" width="200" height="9" rx="3" fill="#737373"/><rect x="900" y="510" width="160" height="9" rx="3" fill="#737373"/><rect x="1140" y="504" width="84" height="22" rx="11" fill="#f5f5f5" stroke="#e5e5e5"/><rect x="1156" y="512" width="52" height="6" rx="3" fill="#737373"/><rect x="1340" y="510" width="80" height="9" rx="3" fill="#737373"/><rect x="360" y="546" width="1100" height="64" fill="#ffffff"/><line x1="360" y1="610" x2="1460" y2="610" stroke="#e5e5e5" stroke-width="1"/><circle cx="400" cy="578" r="14" fill="#f5f5f5" stroke="#e5e5e5"/><rect x="430" y="568" width="180" height="11" rx="3" fill="#171717"/><rect x="430" y="586" width="120" height="9" rx="3" fill="#a3a3a3"/><rect x="640" y="574" width="200" height="9" rx="3" fill="#737373"/><rect x="900" y="574" width="160" height="9" rx="3" fill="#737373"/><rect x="1140" y="568" width="84" height="22" rx="11" fill="#f5f5f5" stroke="#e5e5e5"/><rect x="1156" y="576" width="52" height="6" rx="3" fill="#737373"/><rect x="1340" y="574" width="80" height="9" rx="3" fill="#737373"/><rect x="360" y="610" width="1100" height="64" fill="#ffffff"/><line x1="360" y1="674" x2="1460" y2="674" stroke="#e5e5e5" stroke-width="1"/><circle cx="400" cy="642" r="14" fill="#f5f5f5" stroke="#e5e5e5"/><rect x="430" y="632" width="180" height="11" rx="3" fill="#171717"/><rect x="430" y="650" width="120" height="9" rx="3" fill="#a3a3a3"/><rect x="640" y="638" width="200" height="9" rx="3" fill="#737373"/><rect x="900" y="638" width="160" height="9" rx="3" fill="#737373"/><rect x="1140" y="632" width="84" height="22" rx="11" fill="#f5f5f5" stroke="#e5e5e5"/><rect x="1156" y="640" width="52" height="6" rx="3" fill="#737373"/><rect x="1340" y="638" width="80" height="9" rx="3" fill="#737373"/><rect x="360" y="674" width="1100" height="64" fill="#ffffff"/><line x1="360" y1="738" x2="1460" y2="738" stroke="#e5e5e5" stroke-width="1"/><circle cx="400" cy="706" r="14" fill="#f5f5f5" stroke="#e5e5e5"/><rect x="430" y="696" width="180" height="11" rx="3" fill="#171717"/><rect x="430" y="714" width="120" height="9" rx="3" fill="#a3a3a3"/><rect x="640" y="702" width="200" height="9" rx="3" fill="#737373"/><rect x="900" y="702" width="160" height="9" rx="3" fill="#737373"/><rect x="1140" y="696" width="84" height="22" rx="11" fill="#f5f5f5" stroke="#e5e5e5"/><rect x="1156" y="704" width="52" height="6" rx="3" fill="#737373"/><rect x="1340" y="702" width="80" height="9" rx="3" fill="#737373"/><rect x="360" y="738" width="1100" height="64" fill="#ffffff"/><line x1="360" y1="802" x2="1460" y2="802" stroke="#e5e5e5" stroke-width="1"/><circle cx="400" cy="770" r="14" fill="#f5f5f5" stroke="#e5e5e5"/><rect x="430" y="760" width="180" height="11" rx="3" fill="#171717"/><rect x="430" y="778" width="120" height="9" rx="3" fill="#a3a3a3"/><rect x="640" y="766" width="200" height="9" rx="3" fill="#737373"/><rect x="900" y="766" width="160" height="9" rx="3" fill="#737373"/><rect x="1140" y="760" width="84" height="22" rx="11" fill="#f5f5f5" stroke="#e5e5e5"/><rect x="1156" y="768" width="52" height="6" rx="3" fill="#737373"/><rect x="1340" y="766" width="80" height="9" rx="3" fill="#737373"/><rect x="360" y="802" width="1100" height="64" fill="#ffffff"/><line x1="360" y1="866" x2="1460" y2="866" stroke="#e5e5e5" stroke-width="1"/><circle cx="400" cy="834" r="14" fill="#f5f5f5" stroke="#e5e5e5"/><rect x="430" y="824" width="180" height="11" rx="3" fill="#171717"/><rect x="430" y="842" width="120" height="9" rx="3" fill="#a3a3a3"/><rect x="640" y="830" width="200" height="9" rx="3" fill="#737373"/><rect x="900" y="830" width="160" height="9" rx="3" fill="#737373"/><rect x="1140" y="824" width="84" height="22" rx="11" fill="#f5f5f5" stroke="#e5e5e5"/><rect x="1156" y="832" width="52" height="6" rx="3" fill="#737373"/><rect x="1340" y="830" width="80" height="9" rx="3" fill="#737373"/>
</svg>
