<svg xmlns="http://www.w3.org/2000/svg" viewBox="0 0 1600 1000" role="img" aria-label="Project Two — Features grid">

  <rect width="1600" height="1000" fill="#fafafa"/>
  <rect x="80" y="60" width="1440" height="880" rx="14" fill="#ffffff" stroke="#e5e5e5" stroke-width="2"/>
  <rect x="80" y="60" width="1440" height="48" fill="#f5f5f5"/>
  <rect x="80" y="92" width="1440" height="16" fill="#f5f5f5"/>
  <line x1="80" y1="108" x2="1520" y2="108" stroke="#e5e5e5" stroke-width="2"/>
  <circle cx="110" cy="84" r="7" fill="#d4d4d4"/>
  <circle cx="132" cy="84" r="7" fill="#d4d4d4"/>
  <circle cx="154" cy="84" r="7" fill="#d4d4d4"/>
  <rect x="200" y="72" width="640" height="24" rx="12" fill="#fafafa" stroke="#e5e5e5"/>
  <text x="220" y="89" font-size="13" fill="#a3a3a3" font-family="ui-monospace, SFMono-Regular, Menlo, monospace">project-two.example.com / features</text>
<rect x="80" y="108" width="1440" height="80" fill="#ffffff"/><line x1="80" y1="188" x2="1520" y2="188" stroke="#e5e5e5" stroke-width="1"/><rect x="120" y="140" width="32" height="32" rx="6" fill="#171717"/><rect x="162" y="148" width="90" height="14" rx="3" fill="#171717"/><rect x="700" y="148" width="60" height="10" rx="3" fill="#171717"/><rect x="800" y="148" width="70" height="10" rx="3" fill="#737373"/><rect x="900" y="148" width="50" height="10" rx="3" fill="#737373"/><rect x="1000" y="148" width="80" height="10" rx="3" fill="#737373"/><rect x="1380" y="138" width="100" height="34" rx="6" fill="#171717"/><text x="800" y="280" text-anchor="middle" font-size="14" fill="#a3a3a3" font-family="ui-sans-serif, system-ui" letter-spacing="3">EVERYTHING YOU NEED</text><text x="800" y="356" text-anchor="middle" font-size="56" font-weight="600" fill="#171717" font-family="ui-sans-serif, system-ui" letter-spacing="-2">A small set of sharp tools.</text><rect x="160" y="440" width="400" height="200" rx="12" fill="#ffffff" stroke="#e5e5e5"/><rect x="188" y="468" width="44" height="44" rx="10" fill="#171717"/><rect x="200" y="480" width="20" height="20" rx="4" fill="#ffffff"/><text x="188" y="550" font-size="22" font-weight="600" fill="#171717" font-family="ui-sans-serif, system-ui">Fast by default</text><rect x="188" y="574" width="280" height="9" rx="3" fill="#a3a3a3"/><rect x="188" y="592" width="240" height="9" rx="3" fill="#a3a3a3"/><rect x="188" y="610" width="180" height="9" rx="3" fill="#a3a3a3"/><rect x="600" y="440" width="400" height="200" rx="12" fill="#ffffff" stroke="#e5e5e5"/><rect x="628" y="468" width="44" height="44" rx="10" fill="#171717"/><rect x="640" y="480" width="20" height="20" rx="4" fill="#ffffff"/><text x="628" y="550" font-size="22" font-weight="600" fill="#171717" font-family="ui-sans-serif, system-ui">Work offline</text><rect x="628" y="574" width="280" height="9" rx="3" fill="#a3a3a3"/><rect x="628" y="592" width="240" height="9" rx="3" fill="#a3a3a3"/><rect x="628" y="610" width="180" height="9" rx="3" fill="#a3a3a3"/><rect x="1040" y="440" width="400" height="200" rx="12" fill="#ffffff" stroke="#e5e5e5"/><rect x="1068" y="468" width="44" height="44" rx="10" fill="#171717"/><rect x="1080" y="480" width="20" height="20" rx="4" fill="#ffffff"/><text x="1068" y="550" font-size="22" font-weight="600" fill="#171717" font-family="ui-sans-serif, system-ui">Keyboard-first</text><rect x="1068" y="574" width="280" height="9" rx="3" fill="#a3a3a3"/><rect x="1068" y="592" width="240" height="9" rx="3" fill="#a3a3a3"/><rect x="1068" y="610" width="180" height="9" rx="3" fill="#a3a3a3"/><rect x="160" y="660" width="400" height="200" rx="12" fill="#ffffff" stroke="#e5e5e5"/><rect x="188" y="688" width="44" height="44" rx="10" fill="#171717"/><rect x="200" y="700" width="20" height="20" rx="4" fill="#ffffff"/><text x="188" y="770" font-size="22" font-weight="600" fill="#171717" font-family="ui-sans-serif, system-ui">Open source</text><rect x="188" y="794" width="280" height="9" rx="3" fill="#a3a3a3"/><rect x="188" y="812" width="240" height="9" rx="3" fill="#a3a3a3"/><rect x="188" y="830" width="180" height="9" rx="3" fill="#a3a3a3"/><rect x="600" y="660" width="400" height="200" rx="12" fill="#ffffff" stroke="#e5e5e5"/><rect x="628" y="688" width="44" height="44" rx="10" fill="#171717"/><rect x="640" y="700" width="20" height="20" rx="4" fill="#ffffff"/><text x="628" y="770" font-size="22" font-weight="600" fill="#171717" font-family="ui-sans-serif, system-ui">Self-hostable</text><rect x="628" y="794" width="280" height="9" rx="3" fill="#a3a3a3"/><rect x="628" y="812" width="240" height="9" rx="3" fill="#a3a3a3"/><rect x="628" y="830" width="180" height="9" rx="3" fill="#a3a3a3"/><rect x="1040" y="660" width="400" height="200" rx="12" fill="#ffffff" stroke="#e5e5e5"/><rect x="1068" y="688" width="44" height="44" rx="10" fill="#171717"/><rect x="1080" y="700" width="20" height="20" rx="4" fill="#ffffff"/><text x="1068" y="770" font-size="22" font-weight="600" fill="#171717" font-family="ui-sans-serif, system-ui">API-friendly</text><rect x="1068" y="794" width="280" height="9" rx="3" fill="#a3a3a3"/><rect x="1068" y="812" width="240" height="9" rx="3" fill="#a3a3a3"/><rect x="1068" y="830" width="180" height="9" rx="3" fill="#a3a3a3"/>
</svg>
