<svg xmlns="http://www.w3.org/2000/svg" viewBox="0 0 1600 1000" role="img" aria-label="Project Two — Documentation">

  <rect width="1600" height="1000" fill="#fafafa"/>
  <rect x="80" y="60" width="1440" height="880" rx="14" fill="#ffffff" stroke="#e5e5e5" stroke-width="2"/>
  <rect x="80" y="60" width="1440" height="48" fill="#f5f5f5"/>
  <rect x="80" y="92" width="1440" height="16" fill="#f5f5f5"/>
  <line x1="80" y1="108" x2="1520" y2="108" stroke="#e5e5e5" stroke-width="2"/>
  <circle cx="110" cy="84" r="7" fill="#d4d4d4"/>
  <circle cx="132" cy="84" r="7" fill="#d4d4d4"/>
  <circle cx="154" cy="84" r="7" fill="#d4d4d4"/>
  <rect x="200" y="72" width="640" height="24" rx="12" fill="#fafafa" stroke="#e5e5e5"/>
  <text x="220" y="89" font-size="13" fill="#a3a3a3" font-family="ui-monospace, SFMono-Regular, Menlo, monospace">project-two.example.com / docs</text>
<rect x="80" y="108" width="1440" height="80" fill="#ffffff"/><line x1="80" y1="188" x2="1520" y2="188" stroke="#e5e5e5" stroke-width="1"/><rect x="120" y="140" width="32" height="32" rx="6" fill="#171717"/><rect x="162" y="148" width="90" height="14" rx="3" fill="#171717"/><rect x="80" y="188" width="280" height="752" fill="#f5f5f5"/><line x1="360" y1="188" x2="360" y2="940" stroke="#e5e5e5"/><rect x="120" y="240" width="90" height="9" rx="3" fill="#737373"/><rect x="120" y="284" width="70" height="9" rx="3" fill="#737373"/><rect x="100" y="316" width="240" height="32" rx="6" fill="#ffffff" stroke="#e5e5e5"/><rect x="120" y="328" width="110" height="9" rx="3" fill="#171717"/><rect x="120" y="372" width="80" height="9" rx="3" fill="#737373"/><rect x="120" y="416" width="100" height="9" rx="3" fill="#737373"/><rect x="120" y="460" width="60" height="9" rx="3" fill="#737373"/><rect x="120" y="504" width="90" height="9" rx="3" fill="#737373"/><rect x="400" y="232" width="120" height="10" rx="3" fill="#a3a3a3"/><text x="400" y="306" font-size="44" font-weight="600" fill="#171717" font-family="ui-sans-serif, system-ui" letter-spacing="-1.5">Quickstart</text><rect x="400" y="346" width="640" height="10" rx="3" fill="#a3a3a3"/><rect x="400" y="368" width="540" height="10" rx="3" fill="#a3a3a3"/><rect x="400" y="412" width="1060" height="240" rx="10" fill="#0a0a0a"/><rect x="424" y="436" width="60" height="8" rx="2" fill="#525252"/><text x="424" y="460" font-size="16" font-family="ui-monospace, SFMono-Regular, Menlo, monospace"><tspan fill="#a3a3a3">npm install </tspan><tspan fill="#fafafa">{name}</tspan><tspan fill="#a3a3a3"> --save</tspan></text><text x="424" y="500" font-size="16" font-family="ui-monospace, SFMono-Regular, Menlo, monospace"><tspan fill="#a3a3a3">import </tspan><tspan fill="#fafafa">{ Project }</tspan><tspan fill="#a3a3a3"> from "{name}"</tspan></text><text x="424" y="540" font-size="16" font-family="ui-monospace, SFMono-Regular, Menlo, monospace"><tspan fill="#a3a3a3"></tspan><tspan fill="#fafafa"></tspan><tspan fill="#a3a3a3"></tspan></text><text x="424" y="580" font-size="16" font-family="ui-monospace, SFMono-Regular, Menlo, monospace"><tspan fill="#a3a3a3">const app = </tspan><tspan fill="#fafafa">new Project</tspan><tspan fill="#a3a3a3">({ ... })</tspan></text><text x="424" y="610" font-size="16" font-family="ui-monospace, SFMono-Regular, Menlo, monospace"><tspan fill="#a3a3a3">await app.</tspan><tspan fill="#fafafa">start</tspan><tspan fill="#a3a3a3">()</tspan></text><rect x="400" y="700" width="1000" height="10" rx="3" fill="#a3a3a3"/><rect x="400" y="722" width="900" height="10" rx="3" fill="#a3a3a3"/><rect x="400" y="744" width="780" height="10" rx="3" fill="#a3a3a3"/><rect x="400" y="784" width="160" height="40" rx="6" fill="#171717"/><rect x="424" y="800" width="100" height="9" rx="3" fill="#ffffff"/>
</svg>
