<svg xmlns="http://www.w3.org/2000/svg" viewBox="0 0 1600 1000" role="img" aria-label="Project One — Dashboard overview">

  <rect width="1600" height="1000" fill="#fafafa"/>
  <rect x="80" y="60" width="1440" height="880" rx="14" fill="#ffffff" stroke="#e5e5e5" stroke-width="2"/>
  <rect x="80" y="60" width="1440" height="48" fill="#f5f5f5"/>
  <rect x="80" y="92" width="1440" height="16" fill="#f5f5f5"/>
  <line x1="80" y1="108" x2="1520" y2="108" stroke="#e5e5e5" stroke-width="2"/>
  <circle cx="110" cy="84" r="7" fill="#d4d4d4"/>
  <circle cx="132" cy="84" r="7" fill="#d4d4d4"/>
  <circle cx="154" cy="84" r="7" fill="#d4d4d4"/>
  <rect x="200" y="72" width="640" height="24" rx="12" fill="#fafafa" stroke="#e5e5e5"/>
  <text x="220" y="89" font-size="13" fill="#a3a3a3" font-family="ui-monospace, SFMono-Regular, Menlo, monospace">project-one.example.com / dashboard</text>
<rect x="80" y="108" width="240" height="832" fill="#f5f5f5"/><line x1="320" y1="108" x2="320" y2="940" stroke="#e5e5e5" stroke-width="2"/><rect x="108" y="140" width="32" height="32" rx="6" fill="#171717"/><rect x="150" y="148" width="80" height="14" rx="3" fill="#171717"/><rect x="100" y="210" width="200" height="32" rx="6" fill="#ffffff" stroke="#e5e5e5"/><rect x="116" y="220" width="14" height="14" rx="3" fill="#171717"/><rect x="140" y="223" width="110" height="9" rx="3" fill="#171717"/><rect x="116" y="264" width="14" height="14" rx="3" fill="#737373"/><rect x="140" y="267" width="90" height="9" rx="3" fill="#737373"/><rect x="116" y="308" width="14" height="14" rx="3" fill="#737373"/><rect x="140" y="311" width="120" height="9" rx="3" fill="#737373"/><rect x="116" y="352" width="14" height="14" rx="3" fill="#737373"/><rect x="140" y="355" width="80" height="9" rx="3" fill="#737373"/><rect x="116" y="396" width="14" height="14" rx="3" fill="#737373"/><rect x="140" y="399" width="100" height="9" rx="3" fill="#737373"/><rect x="360" y="148" width="220" height="22" rx="4" fill="#171717"/><rect x="360" y="180" width="380" height="11" rx="3" fill="#a3a3a3"/><rect x="1380" y="148" width="100" height="34" rx="6" fill="#171717"/><rect x="1402" y="161" width="56" height="8" rx="3" fill="#ffffff"/><rect x="360" y="232" width="340" height="140" rx="10" fill="#ffffff" stroke="#e5e5e5"/><rect x="380" y="252" width="80" height="9" rx="3" fill="#a3a3a3"/><text x="380" y="320" font-size="40" font-weight="600" fill="#171717" font-family="ui-sans-serif, system-ui">12,480</text><rect x="380" y="340" width="120" height="8" rx="3" fill="#d4d4d4"/><rect x="740" y="232" width="340" height="140" rx="10" fill="#ffffff" stroke="#e5e5e5"/><rect x="760" y="252" width="80" height="9" rx="3" fill="#a3a3a3"/><text x="760" y="320" font-size="40" font-weight="600" fill="#171717" font-family="ui-sans-serif, system-ui">98.2%</text><rect x="760" y="340" width="120" height="8" rx="3" fill="#d4d4d4"/><rect x="1120" y="232" width="340" height="140" rx="10" fill="#ffffff" stroke="#e5e5e5"/><rect x="1140" y="252" width="80" height="9" rx="3" fill="#a3a3a3"/><text x="1140" y="320" font-size="40" font-weight="600" fill="#171717" font-family="ui-sans-serif, system-ui">324</text><rect x="1140" y="340" width="120" height="8" rx="3" fill="#d4d4d4"/><rect x="360" y="396" width="1100" height="500" rx="10" fill="#ffffff" stroke="#e5e5e5"/><rect x="384" y="424" width="160" height="12" rx="3" fill="#171717"/><rect x="384" y="446" width="240" height="9" rx="3" fill="#a3a3a3"/><line x1="384" y1="520" x2="1436" y2="520" stroke="#e5e5e5" stroke-width="1"/><line x1="384" y1="590" x2="1436" y2="590" stroke="#e5e5e5" stroke-width="1"/><line x1="384" y1="660" x2="1436" y2="660" stroke="#e5e5e5" stroke-width="1"/><line x1="384" y1="730" x2="1436" y2="730" stroke="#e5e5e5" stroke-width="1"/><line x1="384" y1="800" x2="1436" y2="800" stroke="#e5e5e5" stroke-width="1"/><polyline points="384,760 484,700 584,720 684,640 784,680 884,580 984,600 1084,520 1184,560 1284,480 1384,500 1436,460" fill="none" stroke="#171717" stroke-width="3" stroke-linecap="round" stroke-linejoin="round"/><polygon points="384,760 484,700 584,720 684,640 784,680 884,580 984,600 1084,520 1184,560 1284,480 1384,500 1436,460 1436,860 384,860" fill="#171717" fill-opacity="0.06"/><text x="384" y="888" font-size="12" fill="#a3a3a3" font-family="ui-sans-serif, system-ui">Mon</text><text x="559" y="888" font-size="12" fill="#a3a3a3" font-family="ui-sans-serif, system-ui">Tue</text><text x="734" y="888" font-size="12" fill="#a3a3a3" font-family="ui-sans-serif, system-ui">Wed</text><text x="909" y="888" font-size="12" fill="#a3a3a3" font-family="ui-sans-serif, system-ui">Thu</text><text x="1084" y="888" font-size="12" fill="#a3a3a3" font-family="ui-sans-serif, system-ui">Fri</text><text x="1259" y="888" font-size="12" fill="#a3a3a3" font-family="ui-sans-serif, system-ui">Sat</text><text x="1434" y="888" font-size="12" fill="#a3a3a3" font-family="ui-sans-serif, system-ui">Sun</text>
</svg>
