<svg xmlns="http://www.w3.org/2000/svg" viewBox="0 0 1600 1000" role="img" aria-label="Project One — Settings panel">

  <rect width="1600" height="1000" fill="#fafafa"/>
  <rect x="80" y="60" width="1440" height="880" rx="14" fill="#ffffff" stroke="#e5e5e5" stroke-width="2"/>
  <rect x="80" y="60" width="1440" height="48" fill="#f5f5f5"/>
  <rect x="80" y="92" width="1440" height="16" fill="#f5f5f5"/>
  <line x1="80" y1="108" x2="1520" y2="108" stroke="#e5e5e5" stroke-width="2"/>
  <circle cx="110" cy="84" r="7" fill="#d4d4d4"/>
  <circle cx="132" cy="84" r="7" fill="#d4d4d4"/>
  <circle cx="154" cy="84" r="7" fill="#d4d4d4"/>
  <rect x="200" y="72" width="640" height="24" rx="12" fill="#fafafa" stroke="#e5e5e5"/>
  <text x="220" y="89" font-size="13" fill="#a3a3a3" font-family="ui-monospace, SFMono-Regular, Menlo, monospace">project-one.example.com / settings</text>
<rect x="80" y="108" width="240" height="832" fill="#f5f5f5"/><line x1="320" y1="108" x2="320" y2="940" stroke="#e5e5e5" stroke-width="2"/><rect x="108" y="140" width="32" height="32" rx="6" fill="#171717"/><rect x="150" y="148" width="80" height="14" rx="3" fill="#171717"/><rect x="116" y="220" width="14" height="14" rx="3" fill="#737373"/><rect x="140" y="223" width="110" height="9" rx="3" fill="#737373"/><rect x="116" y="264" width="14" height="14" rx="3" fill="#737373"/><rect x="140" y="267" width="90" height="9" rx="3" fill="#737373"/><rect x="116" y="308" width="14" height="14" rx="3" fill="#737373"/><rect x="140" y="311" width="120" height="9" rx="3" fill="#737373"/><rect x="116" y="352" width="14" height="14" rx="3" fill="#737373"/><rect x="140" y="355" width="80" height="9" rx="3" fill="#737373"/><rect x="100" y="386" width="200" height="32" rx="6" fill="#ffffff" stroke="#e5e5e5"/><rect x="116" y="396" width="14" height="14" rx="3" fill="#171717"/><rect x="140" y="399" width="100" height="9" rx="3" fill="#171717"/><rect x="360" y="148" width="200" height="22" rx="4" fill="#171717"/><rect x="360" y="180" width="380" height="11" rx="3" fill="#a3a3a3"/><rect x="360" y="232" width="660" height="660" rx="10" fill="#ffffff" stroke="#e5e5e5"/><rect x="384" y="260" width="160" height="12" rx="3" fill="#171717"/><rect x="384" y="280" width="260" height="9" rx="3" fill="#a3a3a3"/><text x="384" y="312" font-size="12" fill="#737373" font-family="ui-sans-serif, system-ui">Display name</text><rect x="384" y="320" width="612" height="40" rx="6" fill="#fafafa" stroke="#e5e5e5"/><rect x="404" y="336" width="200" height="9" rx="3" fill="#737373"/><text x="384" y="392" font-size="12" fill="#737373" font-family="ui-sans-serif, system-ui">Email address</text><rect x="384" y="400" width="612" height="40" rx="6" fill="#fafafa" stroke="#e5e5e5"/><rect x="404" y="416" width="200" height="9" rx="3" fill="#737373"/><text x="384" y="472" font-size="12" fill="#737373" font-family="ui-sans-serif, system-ui">Workspace URL</text><rect x="384" y="480" width="612" height="40" rx="6" fill="#fafafa" stroke="#e5e5e5"/><rect x="404" y="496" width="200" height="9" rx="3" fill="#737373"/><text x="384" y="552" font-size="12" fill="#737373" font-family="ui-sans-serif, system-ui">Time zone</text><rect x="384" y="560" width="612" height="40" rx="6" fill="#fafafa" stroke="#e5e5e5"/><rect x="404" y="576" width="200" height="9" rx="3" fill="#737373"/><text x="384" y="632" font-size="12" fill="#737373" font-family="ui-sans-serif, system-ui">Notifications</text><rect x="384" y="640" width="612" height="40" rx="6" fill="#fafafa" stroke="#e5e5e5"/><rect x="404" y="656" width="200" height="9" rx="3" fill="#737373"/><rect x="824" y="820" width="172" height="44" rx="6" fill="#171717"/><rect x="868" y="838" width="84" height="9" rx="3" fill="#ffffff"/><rect x="1060" y="232" width="400" height="660" rx="10" fill="#ffffff" stroke="#e5e5e5"/><rect x="1084" y="260" width="160" height="12" rx="3" fill="#171717"/><circle cx="1260" cy="370" r="60" fill="#f5f5f5" stroke="#e5e5e5"/><rect x="1140" y="450" width="240" height="11" rx="3" fill="#171717"/><rect x="1170" y="470" width="180" height="9" rx="3" fill="#a3a3a3"/><rect x="1084" y="520" width="352" height="40" rx="6" fill="#fafafa" stroke="#e5e5e5"/><rect x="1104" y="536" width="120" height="9" rx="3" fill="#737373"/><rect x="1380" y="536" width="40" height="9" rx="3" fill="#d4d4d4"/><rect x="1084" y="580" width="352" height="40" rx="6" fill="#fafafa" stroke="#e5e5e5"/><rect x="1104" y="596" width="120" height="9" rx="3" fill="#737373"/><rect x="1380" y="596" width="40" height="9" rx="3" fill="#d4d4d4"/><rect x="1084" y="640" width="352" height="40" rx="6" fill="#fafafa" stroke="#e5e5e5"/><rect x="1104" y="656" width="120" height="9" rx="3" fill="#737373"/><rect x="1380" y="656" width="40" height="9" rx="3" fill="#d4d4d4"/><rect x="1084" y="700" width="352" height="40" rx="6" fill="#fafafa" stroke="#e5e5e5"/><rect x="1104" y="716" width="120" height="9" rx="3" fill="#737373"/><rect x="1380" y="716" width="40" height="9" rx="3" fill="#d4d4d4"/>
</svg>
