<svg xmlns="http://www.w3.org/2000/svg" viewBox="0 0 1600 1000" role="img" aria-label="Project Two — Landing page">

  <rect width="1600" height="1000" fill="#fafafa"/>
  <rect x="80" y="60" width="1440" height="880" rx="14" fill="#ffffff" stroke="#e5e5e5" stroke-width="2"/>
  <rect x="80" y="60" width="1440" height="48" fill="#f5f5f5"/>
  <rect x="80" y="92" width="1440" height="16" fill="#f5f5f5"/>
  <line x1="80" y1="108" x2="1520" y2="108" stroke="#e5e5e5" stroke-width="2"/>
  <circle cx="110" cy="84" r="7" fill="#d4d4d4"/>
  <circle cx="132" cy="84" r="7" fill="#d4d4d4"/>
  <circle cx="154" cy="84" r="7" fill="#d4d4d4"/>
  <rect x="200" y="72" width="640" height="24" rx="12" fill="#fafafa" stroke="#e5e5e5"/>
  <text x="220" y="89" font-size="13" fill="#a3a3a3" font-family="ui-monospace, SFMono-Regular, Menlo, monospace">project-two.example.com</text>
<rect x="80" y="108" width="1440" height="80" fill="#ffffff"/><line x1="80" y1="188" x2="1520" y2="188" stroke="#e5e5e5" stroke-width="1"/><rect x="120" y="140" width="32" height="32" rx="6" fill="#171717"/><rect x="162" y="148" width="90" height="14" rx="3" fill="#171717"/><rect x="700" y="148" width="60" height="10" rx="3" fill="#737373"/><rect x="800" y="148" width="70" height="10" rx="3" fill="#737373"/><rect x="900" y="148" width="50" height="10" rx="3" fill="#737373"/><rect x="1000" y="148" width="80" height="10" rx="3" fill="#737373"/><rect x="1380" y="138" width="100" height="34" rx="6" fill="#171717"/><rect x="1402" y="151" width="56" height="8" rx="3" fill="#ffffff"/><text x="160" y="370" font-size="84" font-weight="600" fill="#171717" font-family="ui-sans-serif, system-ui" letter-spacing="-3">Build the</text><text x="160" y="470" font-size="84" font-weight="600" fill="#171717" font-family="ui-sans-serif, system-ui" letter-spacing="-3">thing you want.</text><rect x="160" y="510" width="640" height="11" rx="3" fill="#a3a3a3"/><rect x="160" y="532" width="540" height="11" rx="3" fill="#a3a3a3"/><rect x="160" y="554" width="480" height="11" rx="3" fill="#a3a3a3"/><rect x="160" y="608" width="180" height="56" rx="8" fill="#171717"/><rect x="200" y="630" width="100" height="11" rx="3" fill="#ffffff"/><rect x="356" y="608" width="180" height="56" rx="8" fill="#ffffff" stroke="#171717" stroke-width="2"/><rect x="396" y="630" width="100" height="11" rx="3" fill="#171717"/><rect x="900" y="240" width="540" height="480" rx="14" fill="#f5f5f5" stroke="#e5e5e5"/><rect x="930" y="276" width="200" height="14" rx="3" fill="#171717"/><rect x="930" y="304" width="320" height="9" rx="3" fill="#a3a3a3"/><rect x="930" y="350" width="480" height="48" rx="6" fill="#ffffff" stroke="#e5e5e5"/><circle cx="960" cy="374" r="10" fill="#171717"/><rect x="980" y="368" width="180" height="9" rx="3" fill="#171717"/><rect x="980" y="382" width="120" height="7" rx="3" fill="#a3a3a3"/><rect x="930" y="414" width="480" height="48" rx="6" fill="#ffffff" stroke="#e5e5e5"/><circle cx="960" cy="438" r="10" fill="#171717"/><rect x="980" y="432" width="180" height="9" rx="3" fill="#171717"/><rect x="980" y="446" width="120" height="7" rx="3" fill="#a3a3a3"/><rect x="930" y="478" width="480" height="48" rx="6" fill="#ffffff" stroke="#e5e5e5"/><circle cx="960" cy="502" r="10" fill="#171717"/><rect x="980" y="496" width="180" height="9" rx="3" fill="#171717"/><rect x="980" y="510" width="120" height="7" rx="3" fill="#a3a3a3"/><rect x="930" y="542" width="480" height="48" rx="6" fill="#ffffff" stroke="#e5e5e5"/><circle cx="960" cy="566" r="10" fill="#171717"/><rect x="980" y="560" width="180" height="9" rx="3" fill="#171717"/><rect x="980" y="574" width="120" height="7" rx="3" fill="#a3a3a3"/><line x1="160" y1="780" x2="1440" y2="780" stroke="#e5e5e5"/><text x="160" y="850" font-size="40" font-weight="600" fill="#171717" font-family="ui-sans-serif, system-ui">12k</text><rect x="160" y="870" width="80" height="9" rx="3" fill="#a3a3a3"/><text x="480" y="850" font-size="40" font-weight="600" fill="#171717" font-family="ui-sans-serif, system-ui">99.9%</text><rect x="480" y="870" width="80" height="9" rx="3" fill="#a3a3a3"/><text x="800" y="850" font-size="40" font-weight="600" fill="#171717" font-family="ui-sans-serif, system-ui">4.9</text><rect x="800" y="870" width="80" height="9" rx="3" fill="#a3a3a3"/><text x="1120" y="850" font-size="40" font-weight="600" fill="#171717" font-family="ui-sans-serif, system-ui">∞</text><rect x="1120" y="870" width="80" height="9" rx="3" fill="#a3a3a3"/>
</svg>
